<?xml version="1.0" encoding="utf-8"?>
<!-- Generator: Adobe Illustrator 23.0.6, SVG Export Plug-In . SVG Version: 6.00 Build 0)  -->
<svg version="1.1" xmlns="http://www.w3.org/2000/svg" xmlns:xlink="http://www.w3.org/1999/xlink" x="0px" y="0px"
	 viewBox="0 0 981.06 238.13" style="enable-background:new 0 0 981.06 238.13;" xml:space="preserve">
<style type="text/css">
	.st0{fill:#29ABE2;}
	.st1{fill:#1B1464;}
	.st2{fill:url(#SVGID_1_);}
</style>
<g id="Layer_1">
</g>
<g id="Layer_2">
	<g>
		<path class="st0" d="M184.14,110.64V35.61h20.72c26.44,0,39.66,12.19,39.66,36.57c0,11.58-3.67,20.88-11.01,27.91
			c-7.34,7.03-17.17,10.54-29.48,10.54H184.14z M192.93,43.56v59.12h11.2c9.84,0,17.49-2.63,22.97-7.9
			c5.48-5.27,8.21-12.73,8.21-22.39c0-19.22-10.22-28.83-30.66-28.83H192.93z"/>
		<path class="st0" d="M296.47,110.64h-8.58v-8.37h-0.21c-3.73,6.42-9.23,9.63-16.48,9.63c-5.34,0-9.51-1.41-12.53-4.24
			c-3.02-2.83-4.53-6.57-4.53-11.25c0-10.01,5.89-15.83,17.68-17.47l16.06-2.25c0-9.1-3.68-13.66-11.04-13.66
			c-6.45,0-12.28,2.2-17.47,6.59v-8.79c5.27-3.35,11.34-5.02,18.21-5.02c12.59,0,18.89,6.66,18.89,19.99V110.64z M287.89,83.53
			l-12.92,1.78c-3.98,0.56-6.98,1.54-9,2.96s-3.03,3.92-3.03,7.51c0,2.62,0.93,4.75,2.8,6.41s4.35,2.49,7.46,2.49
			c4.26,0,7.77-1.49,10.54-4.47s4.16-6.76,4.16-11.33V83.53z"/>
		<path class="st0" d="M354.75,57.06l-21.35,53.57h-8.42l-20.3-53.57h9.42l13.6,38.93c1.01,2.86,1.64,5.35,1.88,7.48h0.21
			c0.35-2.69,0.91-5.11,1.67-7.27l14.23-39.13H354.75z"/>
		<path class="st0" d="M368.36,43.46c-1.54,0-2.84-0.52-3.92-1.57c-1.08-1.05-1.62-2.37-1.62-3.98c0-1.6,0.54-2.94,1.62-4
			c1.08-1.06,2.39-1.6,3.92-1.6c1.57,0,2.9,0.53,4,1.6c1.1,1.06,1.65,2.4,1.65,4c0,1.54-0.55,2.84-1.65,3.92
			C371.26,42.92,369.92,43.46,368.36,43.46z M372.54,110.64h-8.58V57.06h8.58V110.64z"/>
		<path class="st0" d="M435.64,110.64h-8.58v-9.1h-0.21c-3.98,6.91-10.12,10.36-18.42,10.36c-6.73,0-12.11-2.4-16.14-7.19
			c-4.03-4.8-6.04-11.33-6.04-19.59c0-8.86,2.23-15.96,6.7-21.29c4.47-5.34,10.41-8,17.84-8c7.36,0,12.71,2.9,16.06,8.68h0.21V31.32
			h8.58V110.64z M427.06,86.41v-7.9c0-4.32-1.43-7.99-4.29-10.99c-2.86-3-6.49-4.5-10.88-4.5c-5.23,0-9.35,1.92-12.35,5.76
			c-3,3.84-4.5,9.14-4.5,15.9c0,6.17,1.44,11.05,4.32,14.62c2.88,3.58,6.74,5.36,11.59,5.36c4.78,0,8.66-1.73,11.64-5.18
			C425.57,96.04,427.06,91.68,427.06,86.41z"/>
		<path class="st0" d="M560,110.64h-8.74V60.31c0-3.98,0.24-8.84,0.73-14.6h-0.21c-0.84,3.38-1.59,5.81-2.25,7.27l-25.64,57.66
			h-4.29L494.02,53.4c-0.73-1.67-1.48-4.24-2.25-7.69h-0.21c0.28,3,0.42,7.9,0.42,14.7v50.23h-8.48V35.61h11.61l23.02,52.32
			c1.78,4.01,2.93,7.01,3.45,9h0.31c1.5-4.12,2.7-7.19,3.61-9.21l23.49-52.11H560V110.64z"/>
		<path class="st0" d="M615.09,108.18c-4.12,2.48-9,3.71-14.65,3.71c-7.64,0-13.8-2.49-18.49-7.46c-4.69-4.97-7.04-11.41-7.04-19.33
			c0-8.82,2.53-15.91,7.59-21.27c5.06-5.35,11.81-8.03,20.25-8.03c4.71,0,8.86,0.87,12.45,2.62v8.79
			c-3.98-2.79-8.23-4.19-12.77-4.19c-5.48,0-9.97,1.96-13.47,5.89c-3.51,3.92-5.26,9.08-5.26,15.46c0,6.28,1.65,11.23,4.94,14.86
			c3.3,3.63,7.72,5.44,13.26,5.44c4.67,0,9.07-1.55,13.18-4.66V108.18z"/>
		<path class="st0" d="M667.3,43.56h-29.3v25.95h27.1v7.9h-27.1v33.22h-8.79V35.61h38.09V43.56z"/>
		<path class="st0" d="M718.73,110.64h-8.58v-8.37h-0.21c-3.73,6.42-9.23,9.63-16.48,9.63c-5.34,0-9.51-1.41-12.53-4.24
			s-4.53-6.57-4.53-11.25c0-10.01,5.89-15.83,17.68-17.47l16.06-2.25c0-9.1-3.68-13.66-11.04-13.66c-6.45,0-12.28,2.2-17.47,6.59
			v-8.79c5.27-3.35,11.34-5.02,18.21-5.02c12.59,0,18.89,6.66,18.89,19.99V110.64z M710.15,83.53l-12.92,1.78
			c-3.98,0.56-6.98,1.54-9,2.96s-3.03,3.92-3.03,7.51c0,2.62,0.93,4.75,2.8,6.41s4.35,2.49,7.46,2.49c4.26,0,7.77-1.49,10.54-4.47
			s4.16-6.76,4.16-11.33V83.53z"/>
		<path class="st0" d="M762.84,65.75c-1.5-1.15-3.66-1.73-6.49-1.73c-3.66,0-6.72,1.73-9.18,5.18s-3.69,8.16-3.69,14.13v27.31h-8.58
			V57.06h8.58V68.1h0.21c1.22-3.77,3.09-6.7,5.6-8.82s5.32-3.17,8.42-3.17c2.23,0,3.94,0.24,5.13,0.73V65.75z"/>
		<path class="st0" d="M780.73,110.64h-8.58V31.32h8.58V110.64z"/>
		<path class="st0" d="M836.45,110.64h-8.58v-8.37h-0.21c-3.73,6.42-9.23,9.63-16.48,9.63c-5.34,0-9.51-1.41-12.53-4.24
			s-4.53-6.57-4.53-11.25c0-10.01,5.89-15.83,17.68-17.47l16.06-2.25c0-9.1-3.68-13.66-11.04-13.66c-6.45,0-12.28,2.2-17.47,6.59
			v-8.79c5.27-3.35,11.34-5.02,18.21-5.02c12.59,0,18.89,6.66,18.89,19.99V110.64z M827.87,83.53l-12.92,1.78
			c-3.98,0.56-6.98,1.54-9,2.96c-2.02,1.41-3.03,3.92-3.03,7.51c0,2.62,0.93,4.75,2.8,6.41s4.35,2.49,7.46,2.49
			c4.26,0,7.77-1.49,10.54-4.47s4.16-6.76,4.16-11.33V83.53z"/>
		<path class="st0" d="M897.09,110.64h-8.58V80.08c0-11.37-4.15-17.06-12.45-17.06c-4.29,0-7.84,1.61-10.65,4.84
			c-2.81,3.23-4.21,7.3-4.21,12.22v30.55h-8.58V57.06h8.58v8.89h0.21c4.05-6.77,9.91-10.15,17.58-10.15
			c5.86,0,10.34,1.89,13.45,5.68c3.1,3.79,4.66,9.25,4.66,16.4V110.64z"/>
		<path class="st0" d="M956.31,85.99h-37.83c0.14,5.96,1.74,10.57,4.81,13.81c3.07,3.24,7.29,4.87,12.66,4.87
			c6.03,0,11.58-1.99,16.64-5.96v8.06c-4.71,3.42-10.93,5.13-18.68,5.13c-7.57,0-13.52-2.43-17.84-7.3
			c-4.32-4.87-6.49-11.71-6.49-20.54c0-8.34,2.36-15.13,7.09-20.38s10.59-7.87,17.61-7.87s12.43,2.27,16.27,6.8
			c3.84,4.53,5.76,10.83,5.76,18.89V85.99z M947.52,78.72c-0.03-4.95-1.23-8.81-3.58-11.56s-5.62-4.13-9.81-4.13
			c-4.05,0-7.48,1.45-10.31,4.34c-2.83,2.9-4.57,6.68-5.23,11.35H947.52z"/>
	</g>
	<g>
		<path class="st1" d="M271.78,138.57l-19.56,69.25h-9.51l-14.25-50.61c-0.61-2.16-0.98-4.51-1.11-7.05h-0.19
			c-0.19,2.38-0.61,4.7-1.26,6.95l-14.34,50.71h-9.42l-20.28-69.25h8.93l14.73,53.12c0.61,2.22,1,4.54,1.16,6.95h0.24
			c0.16-1.71,0.66-4.02,1.5-6.95l15.31-53.12h7.78l14.68,53.51c0.52,1.84,0.9,3.99,1.16,6.47h0.19c0.13-1.67,0.56-3.9,1.3-6.66
			l14.15-53.32H271.78z"/>
		<path class="st1" d="M318.77,207.82h-36.7v-69.25h35.16v7.34h-27.04v23.04h25.02v7.29h-25.02v24.24h28.59V207.82z"/>
		<path class="st1" d="M332.09,207.82v-69.25h19.7c5.99,0,10.74,1.46,14.25,4.39s5.26,6.75,5.26,11.45c0,3.93-1.06,7.34-3.19,10.24
			c-2.12,2.9-5.05,4.96-8.79,6.18v0.19c4.67,0.55,8.4,2.31,11.2,5.29s4.2,6.85,4.2,11.61c0,5.92-2.12,10.72-6.37,14.39
			s-9.61,5.51-16.08,5.51H332.09z M340.21,145.91v22.36h8.31c4.44,0,7.94-1.07,10.48-3.21s3.82-5.16,3.82-9.06
			c0-6.73-4.43-10.09-13.28-10.09H340.21z M340.21,175.56v24.92h11.01c4.77,0,8.46-1.13,11.08-3.38c2.62-2.25,3.94-5.34,3.94-9.27
			c0-8.18-5.57-12.27-16.71-12.27H340.21z"/>
		<path class="st1" d="M415.88,207.82v-69.25h19.12c24.4,0,36.61,11.25,36.61,33.76c0,10.69-3.39,19.28-10.17,25.76
			c-6.78,6.49-15.85,9.73-27.21,9.73H415.88z M424,145.91v54.57h10.33c9.08,0,16.15-2.43,21.2-7.29c5.05-4.86,7.58-11.75,7.58-20.67
			c0-17.74-9.43-26.61-28.3-26.61H424z"/>
		<path class="st1" d="M521.94,207.82h-36.7v-69.25h35.16v7.34h-27.04v23.04h25.02v7.29h-25.02v24.24h28.59V207.82z"/>
		<path class="st1" d="M586.75,138.57l-25.64,69.25h-8.93l-25.11-69.25h9.03l19.17,54.91c0.61,1.77,1.08,3.82,1.4,6.13h0.19
			c0.26-1.93,0.79-4.01,1.59-6.23l19.56-54.81H586.75z"/>
		<path class="st1" d="M633.4,207.82h-36.7v-69.25h35.16v7.34h-27.04v23.04h25.02v7.29h-25.02v24.24h28.59V207.82z"/>
		<path class="st1" d="M682.66,207.82h-35.93v-69.25h8.11v61.91h27.82V207.82z"/>
		<path class="st1" d="M721.2,208.98c-9.82,0-17.68-3.24-23.59-9.71c-5.91-6.47-8.86-14.89-8.86-25.26
			c0-11.14,3.01-20.03,9.03-26.66c6.02-6.63,14.21-9.95,24.58-9.95c9.56,0,17.27,3.22,23.11,9.66c5.84,6.44,8.77,14.86,8.77,25.26
			c0,11.3-2.99,20.24-8.98,26.8C739.26,205.7,731.25,208.98,721.2,208.98z M721.78,144.75c-7.28,0-13.18,2.62-17.72,7.87
			c-4.54,5.25-6.81,12.14-6.81,20.67c0,8.53,2.21,15.4,6.64,20.6s10.2,7.8,17.31,7.8c7.6,0,13.59-2.48,17.97-7.44
			c4.38-4.96,6.57-11.9,6.57-20.81c0-9.14-2.12-16.21-6.37-21.2S729.25,144.75,721.78,144.75z"/>
		<path class="st1" d="M775.97,181.65v26.18h-8.11v-69.25h19.03c7.41,0,13.14,1.8,17.22,5.41c4.07,3.61,6.11,8.69,6.11,15.26
			c0,6.57-2.26,11.94-6.79,16.13s-10.63,6.28-18.33,6.28H775.97z M775.97,145.91v28.4h8.5c5.6,0,9.88-1.28,12.82-3.84
			s4.42-6.17,4.42-10.84c0-9.14-5.41-13.72-16.23-13.72H775.97z"/>
		<path class="st1" d="M859.95,207.82h-36.7v-69.25h35.16v7.34h-27.04v23.04h25.02v7.29h-25.02v24.24h28.59V207.82z"/>
		<path class="st1" d="M922.92,207.82h-9.66l-11.59-19.41c-1.06-1.8-2.09-3.34-3.09-4.61c-1-1.27-2.02-2.31-3.07-3.11
			c-1.05-0.8-2.17-1.39-3.38-1.76s-2.57-0.56-4.08-0.56h-6.66v29.46h-8.11v-69.25h20.67c3.03,0,5.82,0.38,8.38,1.13
			s4.78,1.91,6.66,3.45c1.88,1.55,3.36,3.47,4.42,5.77c1.06,2.3,1.59,5,1.59,8.09c0,2.41-0.36,4.63-1.09,6.64s-1.75,3.81-3.09,5.38
			s-2.95,2.92-4.83,4.03s-4,1.97-6.35,2.58v0.19c1.16,0.52,2.17,1.1,3.02,1.76c0.85,0.66,1.67,1.44,2.44,2.34s1.54,1.92,2.29,3.07
			s1.6,2.47,2.54,3.98L922.92,207.82z M881.39,145.91v25.11h11.01c2.03,0,3.9-0.31,5.63-0.92c1.72-0.61,3.21-1.49,4.47-2.63
			c1.26-1.14,2.24-2.54,2.95-4.2s1.06-3.52,1.06-5.58c0-3.7-1.2-6.59-3.6-8.67c-2.4-2.08-5.87-3.11-10.41-3.11H881.39z"/>
	</g>
	<path d="M-21.57,152.62"/>
	<g>
		<linearGradient id="SVGID_1_" gradientUnits="userSpaceOnUse" x1="147.109" y1="23.0093" x2="44.7834" y2="200.2424">
			<stop  offset="0" style="stop-color:#29ABE2"/>
			<stop  offset="1" style="stop-color:#1B1464"/>
		</linearGradient>
		<path class="st2" d="M165.73,37.09v113.97c0,46.17-21.71,69.25-65.14,69.25c-20.61,0-37.17-6.39-49.7-19.24
			c-12.5-12.82-18.77-29.97-18.77-51.5V37.09c0-3.2,2.57-5.77,5.77-5.77h10.74c2.31,0,4.37,1.35,5.3,3.43l45,78.93l46.09-78.95
			c0.91-2.08,2.99-3.41,5.25-3.41h9.7C163.13,31.32,165.73,33.89,165.73,37.09z"/>
	</g>
</g>
</svg>
